<!DOCTYPE svg PUBLIC "-//W3C//DTD SVG 1.1//EN" "http://www.w3.org/Graphics/SVG/1.1/DTD/svg11.dtd">

<!-- Uploaded to: SVG Repo, www.svgrepo.com, Transformed by: SVG Repo Mixer Tools -->
<svg width="800px" height="800px" viewBox="-3 -3 21.00 21.00" fill="none" xmlns="http://www.w3.org/2000/svg" stroke="#bababa">

<g id="SVGRepo_bgCarrier" stroke-width="0">

<rect x="-3" y="-3" width="21.00" height="21.00" rx="10.5" fill="#e6e6e6" strokewidth="0"/>

</g>

<g id="SVGRepo_tracerCarrier" stroke-linecap="round" stroke-linejoin="round"/>

<g id="SVGRepo_iconCarrier"> <path d="M5.5 10V8.5M5.5 8.5V3.5C5.5 2.94772 5.94772 2.5 6.5 2.5C7.05228 2.5 7.5 2.94772 7.5 3.5V7.5H10.8529C11.7626 7.5 12.5 8.23741 12.5 9.14706V10C12.5 12.4853 10.4853 14.5 8 14.5H7.5C5.29086 14.5 3.5 12.7091 3.5 10.5C3.5 9.39543 4.39543 8.5 5.5 8.5ZM9 5.5H11C12.3807 5.5 13.5 4.38071 13.5 3C13.5 1.61929 12.3807 0.5 11 0.5H4C2.61929 0.5 1.5 1.61929 1.5 3C1.5 4.38071 2.61929 5.5 4 5.5" stroke="#0088cc"/> </g>

</svg>