<!DOCTYPE svg PUBLIC "-//W3C//DTD SVG 1.1//EN" "http://www.w3.org/Graphics/SVG/1.1/DTD/svg11.dtd">

<!-- Uploaded to: SVG Repo, www.svgrepo.com, Transformed by: SVG Repo Mixer Tools -->
<svg width="32px" height="32px" viewBox="-7.2 -7.2 62.40 62.40" xmlns="http://www.w3.org/2000/svg" fill="#FFFFFF" transform="rotate(0)matrix(-1, 0, 0, 1, 0, 0)">

<g id="SVGRepo_bgCarrier" stroke-width="0">

<rect x="-7.2" y="-7.2" width="62.40" height="62.40" rx="31.2" fill="#1071ad" strokewidth="0"/>

</g>

<g id="SVGRepo_tracerCarrier" stroke-linecap="round" stroke-linejoin="round"/>

<g id="SVGRepo_iconCarrier"> <path d="M0 0h48v48H0z" fill="none"/> <g id="Shopicon"> <path d="M10,22v2c0,7.72,6.28,14,14,14s14-6.28,14-14s-6.28-14-14-14h-4V4l-8,8l8,8v-6h4c5.514,0,10,4.486,10,10s-4.486,10-10,10 s-10-4.486-10-10v-2H10z"/> </g> </g>

</svg>