<!DOCTYPE svg PUBLIC "-//W3C//DTD SVG 1.1//EN" "http://www.w3.org/Graphics/SVG/1.1/DTD/svg11.dtd">

<!-- Uploaded to: SVG Repo, www.svgrepo.com, Transformed by: SVG Repo Mixer Tools -->
<svg fill="#FFFFFF" width="34px" height="34px" viewBox="-7.92 -7.92 39.84 39.84" xmlns="http://www.w3.org/2000/svg">

<g id="SVGRepo_bgCarrier" stroke-width="0">

<rect x="-7.92" y="-7.92" width="39.84" height="39.84" rx="19.92" fill="#1071ad" strokewidth="0"/>

</g>

<g id="SVGRepo_tracerCarrier" stroke-linecap="round" stroke-linejoin="round"/>

<g id="SVGRepo_iconCarrier">

<path d="M21,20V8.414a1,1,0,0,0-.293-.707L16.293,3.293A1,1,0,0,0,15.586,3H4A1,1,0,0,0,3,4V20a1,1,0,0,0,1,1H20A1,1,0,0,0,21,20ZM9,8h4a1,1,0,0,1,0,2H9A1,1,0,0,1,9,8Zm7,11H8V15a1,1,0,0,1,1-1h6a1,1,0,0,1,1,1Z"/>

</g>

</svg>